<svg xmlns="http://www.w3.org/2000/svg" version="1.1" xmlns:xlink="http://www.w3.org/1999/xlink" xmlns:svgjs="http://svgjs.dev/svgjs" width="2000" height="2250" viewBox="0 0 2000 2250"><g transform="matrix(1,0,0,1,0,0)"><svg viewBox="0 0 320 360" data-background-color="#32f6f7" preserveAspectRatio="xMidYMid meet" height="2250" width="2000" xmlns="http://www.w3.org/2000/svg" xmlns:xlink="http://www.w3.org/1999/xlink"><g id="tight-bounds" transform="matrix(1,0,0,1,0,0)"><svg viewBox="0 0 320 360" height="360" width="320"><g><svg></svg></g><g><svg viewBox="0 0 320 360" height="360" width="320"><g><path d="M297.491 100.645c-12.426-21.51-112.674-79.355-137.491-79.355-24.817 0-125.028 57.845-137.491 79.355-11.591 20.02-11.591 138.726 0 158.746 12.463 21.474 112.674 79.319 137.491 79.319 24.817 0 125.064-57.845 137.491-79.355 11.591-20.02 11.591-138.69 0-158.71zM309.481 93.705c-14.461-24.998-119.469-86.295-149.481-86.295-30.012 0-135.02 61.297-149.481 86.295-14.025 24.199-14.025 148.391 0 172.59 14.461 24.998 119.469 86.295 149.481 86.295 30.012 0 135.02-61.297 149.481-86.259 14.025-24.235 14.025-148.427 0-172.626zM300.906 261.353c-12.753 22.055-115.472 81.317-140.906 81.318-25.434 0-128.153-59.298-140.906-81.354-11.881-20.529-11.881-142.178 0-162.707 12.753-22.019 115.472-81.281 140.906-81.281 25.434 0 128.153 59.298 140.906 81.318 11.881 20.529 11.881 142.178 0 162.706z" fill="#161515" fill-rule="nonzero" stroke="none" stroke-width="1" stroke-linecap="butt" stroke-linejoin="miter" stroke-miterlimit="10" stroke-dasharray="" stroke-dashoffset="0" font-family="none" font-weight="none" font-size="none" text-anchor="none" style="mix-blend-mode: normal" data-fill-palette-color="tertiary"></path></g><g transform="matrix(1,0,0,1,99.98055136290684,90)"><svg viewBox="0 0 120.03889727418633 180" height="180" width="120.03889727418633"><g><svg viewBox="0 0 171.33773015454545 256.92331509321787" height="180" width="120.03889727418633"><g><svg viewBox="0 0 171.33773015454545 256.92331509321787" height="256.92331509321787" width="171.33773015454545"><g><svg viewBox="0 0 171.33773015454545 256.92331509321787" height="256.92331509321787" width="171.33773015454545"><g><rect width="171.33773015454545" height="16.1322683800032" x="0" y="197.89158107592002" fill="#32f6f7" opacity="1" stroke-width="0" stroke="transparent" fill-opacity="1" class="rect-bu-0" data-fill-palette-color="quaternary" rx="1%" id="bu-0" data-palette-color="#32f6f7"></rect></g><g transform="matrix(1,0,0,1,0.42621325909090046,0)"><svg viewBox="0 0 170.48530363636365 178.88760000000002" height="178.88760000000002" width="170.48530363636365"><g transform="matrix(1,0,0,1,0,0)"><svg width="170.48530363636365" viewBox="1.8 -33 31.45 33" height="178.88760000000002" data-palette-color="#32f6f7"><path d="M26.6 0L8.45 0 8.45-0.8 13.75-2.85 13.75-30.25 6.6-30.25 2.6-22 1.8-22 1.8-33 33.25-33 33.25-22 32.45-22 28.45-30.25 21.3-30.25 21.3-2.85 26.6-0.8 26.6 0Z" opacity="1" transform="matrix(1,0,0,1,0,0)" fill="#32f6f7" class="undefined-text-0" data-fill-palette-color="quaternary" id="text-0"></path></svg></g></svg></g><g transform="matrix(1,0,0,1,0,233.02783053184322)"><svg viewBox="0 0 170.48530363636365 23.895484561374655" height="23.895484561374655" width="170.48530363636365"><g transform="matrix(1,0,0,1,0,0)"><svg width="170.48530363636365" viewBox="2.54 -39.84 377.77 52.95" height="23.895484561374655" data-palette-color="#32f6f7"><path d="M30.37-27.66L27.86-4.91Q27.83-4.81 27.83-4.72 27.83-4.64 27.83-4.57L27.83-4.57Q27.83-3.96 28.03-3.55 28.22-3.15 28.45-2.89 28.69-2.64 28.88-2.48 29.08-2.32 29.08-2.2L29.08-2.2Q29.08-1.86 28.34-1.56L28.34-1.56 21.78 1.25Q21.75 1.27 21.61 1.27L21.61 1.27Q21.41 1.27 21.22 0.93 21.02 0.59 20.84 0.06 20.65-0.46 20.5-1.06 20.34-1.66 20.21-2.17L20.21-2.17Q18.68-0.39 16.89 0.44 15.11 1.27 13.35 1.27L13.35 1.27Q11.3 1.27 9.35 0.37 7.4-0.54 5.88-2.21 4.37-3.88 3.45-6.25 2.54-8.62 2.54-11.57L2.54-11.57Q2.54-15.06 3.55-17.94 4.57-20.83 6.3-22.9 8.03-24.98 10.34-26.11 12.65-27.25 15.23-27.25L15.23-27.25Q17.07-27.25 18.7-26.5 20.34-25.76 21.8-24.58L21.8-24.58Q21.95-25.32 21.97-25.76 22-26.2 22.08-26.44 22.17-26.68 22.41-26.77 22.66-26.86 23.22-26.9L23.22-26.9Q24.98-27.15 26.72-27.36 28.47-27.56 30.37-27.66L30.37-27.66ZM19.53-6.88L20.56-14.11Q20.8-15.5 20.89-16.74 20.97-17.97 21.02-18.99L21.02-18.99Q20.63-19.29 20.18-19.6 19.73-19.92 19.2-20.2 18.68-20.48 18.1-20.65 17.53-20.83 16.89-20.83L16.89-20.83Q15.58-20.83 14.69-19.97 13.79-19.12 13.24-17.87 12.7-16.63 12.46-15.23 12.23-13.84 12.23-12.77L12.23-12.77Q12.23-8.91 13.24-7.12 14.26-5.32 16.06-5.32L16.06-5.32Q16.8-5.32 17.7-5.74 18.6-6.15 19.53-6.88L19.53-6.88ZM35.08-20.65L35.08-20.65Q35.37-24 35.56-27.27 35.74-30.54 35.96-33.98L35.96-33.98Q36.01-34.79 36.12-35.1 36.23-35.4 36.67-35.5L36.67-35.5Q38.94-35.91 41.22-36.34 43.5-36.77 45.8-37.48L45.8-37.48Q45.87-37.5 46.02-37.5L46.02-37.5Q46.29-37.5 46.29-37.26L46.29-37.26 43.11-2.39 43.11-1.98Q43.11-1.76 42.94-1.62 42.77-1.49 42.14-1.32L42.14-1.32 35.74 1.03Q35.47 1.15 35.03 1.28 34.59 1.42 34.18 1.42L34.18 1.42Q33.84 1.42 33.58 1.25 33.32 1.07 33.32 0.66L33.32 0.66 33.32 0.51Q33.52-1.95 33.7-4.31 33.88-6.67 34.09-9.18 34.3-11.69 34.54-14.5 34.79-17.31 35.08-20.65ZM59.74-10.11L63.57-24.85Q63.64-25.12 63.98-25.2L63.98-25.2Q65.96-25.63 68.04-26.1 70.11-26.56 72.02-27.25L72.02-27.25Q72.36-27.25 72.36-27L72.36-27 74.85-10.35 79.51-27Q79.61-27.25 79.88-27.25L79.88-27.25Q79.95-27.25 79.98-27.23 80-27.22 80.07-27.22L80.07-27.22Q81.9-26.51 83.83-26.06 85.76-25.61 87.67-25.2L87.67-25.2Q88.13-25.1 88.13-24.66L88.13-24.66Q88.13-24.34 87.84-23.68L87.84-23.68 79.98-1.9Q79.78-1.49 79.63-1.21 79.49-0.93 79.34-0.77 79.19-0.61 79.02-0.52 78.85-0.44 78.61-0.39L78.61-0.39Q76.75 0 74.85 0.46 72.94 0.93 70.89 1.64L70.89 1.64Q70.84 1.64 70.82 1.65 70.8 1.66 70.77 1.66L70.77 1.66 70.6 1.66Q70.48 1.66 70.41 1.57 70.33 1.49 70.31 1.42L70.31 1.42Q70.04 0.37 69.7-1.2 69.36-2.76 68.96-4.66 68.57-6.57 68.13-8.74 67.7-10.91 67.23-13.21L67.23-13.21 64.13-2.29Q64.01-1.86 63.87-1.57 63.74-1.29 63.57-1.14 63.4-0.98 63.2-0.9 63.01-0.83 62.76-0.78L62.76-0.78Q60.91-0.42 59 0.06 57.1 0.54 55.05 1.25L55.05 1.25Q55 1.25 54.98 1.26 54.95 1.27 54.93 1.27L54.93 1.27 54.76 1.27Q54.63 1.27 54.55 1.18 54.46 1.1 54.46 1.03L54.46 1.03Q54.12-0.05 53.68-1.7 53.24-3.34 52.74-5.38 52.24-7.42 51.7-9.74 51.17-12.06 50.61-14.45 50.04-16.85 49.49-19.2 48.95-21.56 48.43-23.68L48.43-23.68Q48.26-24.07 48.24-24.33 48.21-24.58 48.21-24.76L48.21-24.76Q48.21-25.1 48.6-25.2L48.6-25.2Q50.51-25.61 52.56-26.06 54.61-26.51 56.44-27.22L56.44-27.22Q56.51-27.25 56.66-27.25L56.66-27.25Q56.98-27.25 57-27L57-27 59.74-10.11ZM116.76-27.66L114.25-4.91Q114.23-4.81 114.23-4.72 114.23-4.64 114.23-4.57L114.23-4.57Q114.23-3.96 114.42-3.55 114.62-3.15 114.85-2.89 115.08-2.64 115.28-2.48 115.47-2.32 115.47-2.2L115.47-2.2Q115.47-1.86 114.74-1.56L114.74-1.56 108.17 1.25Q108.15 1.27 108 1.27L108 1.27Q107.81 1.27 107.61 0.93 107.41 0.59 107.23 0.06 107.05-0.46 106.89-1.06 106.73-1.66 106.61-2.17L106.61-2.17Q105.07-0.39 103.29 0.44 101.51 1.27 99.75 1.27L99.75 1.27Q97.7 1.27 95.74 0.37 93.79-0.54 92.28-2.21 90.76-3.88 89.85-6.25 88.93-8.62 88.93-11.57L88.93-11.57Q88.93-15.06 89.95-17.94 90.96-20.83 92.69-22.9 94.43-24.98 96.73-26.11 99.04-27.25 101.63-27.25L101.63-27.25Q103.46-27.25 105.1-26.5 106.73-25.76 108.2-24.58L108.2-24.58Q108.34-25.32 108.37-25.76 108.39-26.2 108.48-26.44 108.56-26.68 108.81-26.77 109.05-26.86 109.61-26.9L109.61-26.9Q111.37-27.15 113.12-27.36 114.86-27.56 116.76-27.66L116.76-27.66ZM105.93-6.88L106.95-14.11Q107.19-15.5 107.28-16.74 107.37-17.97 107.41-18.99L107.41-18.99Q107.02-19.29 106.57-19.6 106.12-19.92 105.6-20.2 105.07-20.48 104.5-20.65 103.92-20.83 103.29-20.83L103.29-20.83Q101.97-20.83 101.08-19.97 100.19-19.12 99.64-17.87 99.09-16.63 98.86-15.23 98.63-13.84 98.63-12.77L98.63-12.77Q98.63-8.91 99.64-7.12 100.65-5.32 102.46-5.32L102.46-5.32Q103.19-5.32 104.09-5.74 105-6.15 105.93-6.88L105.93-6.88ZM135.37-0.95L129.99 11.13Q129.95 11.23 129.89 11.29 129.82 11.35 129.68 11.35L129.68 11.35Q129.53 11.35 129.46 11.33L129.46 11.33Q128.58 11.01 127.8 10.79 127.02 10.57 126.25 10.39 125.48 10.21 124.67 10.05 123.87 9.89 122.96 9.69L122.96 9.69Q122.72 9.64 122.59 9.53 122.45 9.42 122.45 9.16L122.45 9.16Q122.45 9.08 122.54 8.8 122.62 8.52 122.96 7.65 123.31 6.79 124.01 5.14 124.72 3.49 125.97 0.71L125.97 0.71Q125.6-0.51 125.14-2.22 124.67-3.93 124.15-5.96 123.62-7.98 123.06-10.24 122.5-12.5 121.93-14.81 121.35-17.11 120.78-19.37 120.2-21.63 119.67-23.68L119.67-23.68Q119.5-24.07 119.47-24.33 119.45-24.58 119.45-24.76L119.45-24.76Q119.45-25.1 119.84-25.2L119.84-25.2Q121.74-25.61 123.79-26.06 125.84-26.51 127.68-27.22L127.68-27.22Q127.75-27.25 127.9-27.25L127.9-27.25Q128.21-27.25 128.24-27L128.24-27 131.22-10.6Q131.31-10.89 131.59-11.66 131.87-12.43 132.25-13.5 132.63-14.58 133.1-15.87 133.56-17.16 134.05-18.51 134.54-19.85 135.01-21.18 135.49-22.51 135.9-23.66 136.32-24.8 136.62-25.68 136.93-26.56 137.1-27L137.1-27Q137.2-27.25 137.47-27.25L137.47-27.25Q137.54-27.25 137.56-27.23 137.59-27.22 137.66-27.22L137.66-27.22Q139.49-26.51 141.42-26.06 143.35-25.61 145.25-25.2L145.25-25.2Q145.72-25.1 145.72-24.66L145.72-24.66Q145.72-24.34 145.42-23.68L145.42-23.68 135.37-0.95ZM147.5-0.07L147.18-6.74Q147.18-6.76 147.17-6.77 147.16-6.79 147.16-6.81L147.16-6.81Q147.16-7.13 147.5-7.13L147.5-7.13Q147.72-7.13 147.89-6.96L147.89-6.96Q148.86-6.03 150.12-5.44 151.38-4.86 152.84-4.86L152.84-4.86Q153.23-4.86 153.75-4.94 154.26-5.03 154.72-5.22 155.19-5.42 155.49-5.75 155.8-6.08 155.8-6.57L155.8-6.57Q155.8-7.1 155.53-7.56 155.26-8.01 154.82-8.3L154.82-8.3Q154.58-8.47 153.97-8.9 153.36-9.33 152.66-9.81 151.97-10.3 151.34-10.74 150.72-11.18 150.48-11.38L150.48-11.38Q149.38-12.21 148.73-13.06 148.08-13.92 147.74-14.83 147.4-15.75 147.3-16.75 147.2-17.75 147.2-18.87L147.2-18.87Q147.2-20.58 148.11-22.09 149.01-23.61 150.49-24.76 151.97-25.9 153.84-26.57 155.72-27.25 157.68-27.25L157.68-27.25Q159.29-27.25 160.85-26.76 162.41-26.27 163.76-25.1L163.76-25.1Q163.88-23.56 163.93-22.07 163.98-20.58 164.07-18.95L164.07-18.95Q164.07-18.63 163.93-18.52 163.78-18.41 163.59-18.41L163.59-18.41Q163.42-18.41 163.29-18.53L163.29-18.53Q162.73-19.07 162.15-19.59 161.56-20.12 160.91-20.52 160.27-20.92 159.53-21.18 158.8-21.44 157.97-21.44L157.97-21.44Q157.46-21.44 156.95-21.35 156.43-21.26 156.02-21.03 155.6-20.8 155.35-20.41 155.09-20.02 155.09-19.41L155.09-19.41Q155.09-18.7 155.26-18.19 155.43-17.68 156.07-17.19L156.07-17.19 160.61-14.11Q161.85-13.26 162.62-12.44 163.39-11.62 163.83-10.82 164.27-10.01 164.43-9.22 164.59-8.42 164.59-7.64L164.59-7.64Q164.59-5.44 163.57-3.77 162.56-2.1 160.95-0.99 159.34 0.12 157.3 0.7 155.26 1.27 153.21 1.27L153.21 1.27Q151.65 1.27 150.2 0.94 148.74 0.61 147.5-0.07L147.5-0.07ZM180.7-34.99L180.7-34.99Q180.67-34.4 180.6-33.53 180.53-32.67 180.44-31.7 180.36-30.74 180.25-29.75 180.14-28.76 180.05-27.93 179.97-27.1 179.92-26.5 179.87-25.9 179.87-25.73L179.87-25.73Q179.77-24.22 179.66-22.92 179.55-21.63 179.43-20.36 179.31-19.09 179.17-17.74 179.04-16.38 178.89-14.75 178.74-13.11 178.56-11.11 178.38-9.11 178.18-6.52L178.18-6.52 188.29-7.54Q188.97-7.62 189.41-7.62L189.41-7.62Q189.95-7.62 190.09-7.45 190.22-7.28 190.22-6.91L190.22-6.91Q190.22-6.86 190.19-6.77 190.17-6.69 190.09-6.45 190-6.2 189.84-5.74 189.68-5.27 189.41-4.44L189.41-4.44 188.88-2.83Q188.61-2.05 188.38-1.43 188.14-0.81 187.8-0.35 187.46 0.1 186.95 0.37 186.44 0.63 185.63 0.71L185.63 0.71Q185.12 0.76 184.24 0.79 183.36 0.83 182.21 0.87 181.06 0.9 179.73 0.95 178.4 1 177.01 1.07L177.01 1.07Q175.64 1.12 174.25 1.14 172.86 1.15 171.62 1.17 170.37 1.2 169.32 1.22 168.27 1.25 167.59 1.27L167.59 1.27Q166.95 1.27 166.67 1.17 166.39 1.07 166.39 0.85L166.39 0.85Q166.39 0.59 166.56 0.09 166.73-0.42 167-1.04 167.27-1.66 167.6-2.33 167.93-3 168.25-3.64L168.25-3.64 168.91-12.35Q169.1-14.58 169.3-16.87 169.49-19.17 169.64-21.31L169.64-21.31 170.05-27.78Q170.2-30.08 170.25-31.12 170.3-32.15 170.3-32.25L170.3-32.25Q170.35-32.69 170.37-32.98 170.4-33.28 170.46-33.47 170.52-33.67 170.64-33.76 170.76-33.86 171.01-33.91L171.01-33.91 179.57-35.94Q179.84-36.04 180.23-36.04L180.23-36.04Q180.5-36.04 180.61-35.88 180.72-35.72 180.72-35.28L180.72-35.28Q180.72-35.23 180.71-35.14 180.7-35.06 180.7-34.99ZM206.55-27.25L206.55-27.25Q208.87-27.25 210.76-26.38 212.65-25.51 214.01-24.13 215.36-22.75 216.1-21.04 216.83-19.34 216.83-17.63L216.83-17.63Q216.83-16.11 215.9-14.59 214.97-13.06 213.3-11.84 211.63-10.62 209.28-9.86 206.94-9.11 204.13-9.11L204.13-9.11Q202.67-9.11 201.06-9.4L201.06-9.4Q201.15-8.35 201.67-7.59 202.18-6.84 202.96-6.35 203.74-5.86 204.73-5.63 205.72-5.4 206.77-5.4L206.77-5.4Q207.94-5.4 209.03-5.6 210.11-5.81 211.12-6.15 212.12-6.49 213.04-6.91 213.97-7.32 214.8-7.74L214.8-7.74Q215.02-7.79 215.18-7.82 215.34-7.86 215.49-7.86L215.49-7.86Q215.49-7.86 215.47-7.47 215.46-7.08 215.46-6.37 215.46-5.66 215.45-4.66 215.44-3.66 215.41-2.44L215.41-2.44Q215.49-2.32 215.51-2.2 215.53-2.08 215.53-2L215.53-2Q215.53-1.71 215-1.37 214.46-1.03 213.59-0.66 212.73-0.29 211.62 0.05 210.5 0.39 209.36 0.67 208.21 0.95 207.14 1.11 206.06 1.27 205.26 1.27L205.26 1.27Q202.62 1.27 200.14 0.35 197.66-0.56 195.75-2.27 193.83-3.98 192.68-6.42 191.54-8.86 191.54-11.91L191.54-11.91Q191.54-15.11 192.63-17.91 193.73-20.7 195.72-22.78 197.71-24.85 200.47-26.05 203.23-27.25 206.55-27.25ZM206.26-20.75L206.26-20.75Q205.26-20.75 204.41-20.32 203.57-19.9 202.88-19.1 202.18-18.31 201.67-17.2 201.15-16.09 200.84-14.75L200.84-14.75Q203.35-15.19 205.01-15.67 206.67-16.16 207.67-16.66 208.67-17.16 209.09-17.66 209.5-18.16 209.5-18.63L209.5-18.63Q209.5-19.07 209.17-19.46 208.84-19.85 208.36-20.14 207.87-20.43 207.29-20.59 206.72-20.75 206.26-20.75ZM247.32-27.66L244.8-4.91Q244.78-4.81 244.78-4.72 244.78-4.64 244.78-4.57L244.78-4.57Q244.78-3.96 244.98-3.55 245.17-3.15 245.4-2.89 245.63-2.64 245.83-2.48 246.02-2.32 246.02-2.2L246.02-2.2Q246.02-1.86 245.29-1.56L245.29-1.56 238.73 1.25Q238.7 1.27 238.55 1.27L238.55 1.27Q238.36 1.27 238.16 0.93 237.97 0.59 237.79 0.06 237.6-0.46 237.44-1.06 237.28-1.66 237.16-2.17L237.16-2.17Q235.62-0.39 233.84 0.44 232.06 1.27 230.3 1.27L230.3 1.27Q228.25 1.27 226.3 0.37 224.35-0.54 222.83-2.21 221.32-3.88 220.4-6.25 219.49-8.62 219.49-11.57L219.49-11.57Q219.49-15.06 220.5-17.94 221.51-20.83 223.25-22.9 224.98-24.98 227.29-26.11 229.59-27.25 232.18-27.25L232.18-27.25Q234.01-27.25 235.65-26.5 237.28-25.76 238.75-24.58L238.75-24.58Q238.9-25.32 238.92-25.76 238.94-26.2 239.03-26.44 239.12-26.68 239.36-26.77 239.6-26.86 240.17-26.9L240.17-26.9Q241.92-27.15 243.67-27.36 245.41-27.56 247.32-27.66L247.32-27.66ZM236.48-6.88L237.5-14.11Q237.75-15.5 237.83-16.74 237.92-17.97 237.97-18.99L237.97-18.99Q237.58-19.29 237.13-19.6 236.67-19.92 236.15-20.2 235.62-20.48 235.05-20.65 234.48-20.83 233.84-20.83L233.84-20.83Q232.52-20.83 231.63-19.97 230.74-19.12 230.19-17.87 229.64-16.63 229.41-15.23 229.18-13.84 229.18-12.77L229.18-12.77Q229.18-8.91 230.19-7.12 231.21-5.32 233.01-5.32L233.01-5.32Q233.74-5.32 234.65-5.74 235.55-6.15 236.48-6.88L236.48-6.88ZM271.83-27.44L270.31-19.87Q269.8-19.92 269.17-19.98 268.53-20.04 267.82-20.04L267.82-20.04Q266.75-20.04 265.64-19.86 264.53-19.68 263.58-19.14 262.62-18.6 261.94-17.66 261.26-16.72 261.06-15.23L261.06-15.23Q260.89-13.43 260.78-12.27 260.67-11.11 260.62-10.36 260.57-9.62 260.54-9.17 260.5-8.72 260.48-8.33L260.48-8.33Q260.48-8.23 260.44-7.79 260.4-7.35 260.33-6.76 260.26-6.18 260.19-5.49 260.13-4.81 260.06-4.22 259.99-3.64 259.95-3.2 259.91-2.76 259.91-2.66L259.91-2.66Q259.91-2.47 259.93-2.33 259.94-2.2 259.94-2.08L259.94-2.08Q259.94-1.88 259.76-1.75 259.57-1.61 258.94-1.44L258.94-1.44 252.47 0.88Q252.2 0.98 251.76 1.12 251.32 1.27 250.91 1.27L250.91 1.27Q250.56 1.27 250.31 1.1 250.05 0.93 250.05 0.51L250.05 0.51 252.15-23.68Q252.22-24.49 252.33-24.79 252.44-25.1 252.88-25.2L252.88-25.2Q255.1-25.63 257.47-26.09 259.84-26.54 262.06-27.25L262.06-27.25Q262.26-27.25 262.29-27.19 262.33-27.12 262.33-27L262.33-27Q262.33-26.95 262.32-26.86 262.31-26.76 262.25-26.42 262.18-26.07 262.07-25.38 261.96-24.68 261.77-23.44L261.77-23.44Q262.89-24.32 264.25-25.05 265.6-25.78 266.97-26.31 268.34-26.83 269.61-27.14 270.88-27.44 271.83-27.44L271.83-27.44ZM298.61-0.78L292.68 0.88Q292.41 0.95 291.97 1.11 291.53 1.27 291.11 1.27L291.11 1.27Q290.77 1.27 290.51 1.1 290.26 0.93 290.26 0.51L290.26 0.51 290.26 0.37Q290.4-0.95 290.5-1.87 290.6-2.78 290.69-3.53 290.77-4.27 290.83-5.02 290.89-5.76 290.99-6.75 291.09-7.74 291.22-9.09 291.36-10.45 291.55-12.48L291.55-12.48Q291.67-13.72 291.77-15.01 291.87-16.31 291.87-17.41L291.87-17.41Q291.87-18.14 291.76-18.76 291.65-19.38 291.37-19.84 291.09-20.29 290.6-20.53 290.11-20.78 289.35-20.78L289.35-20.78Q288.79-20.78 287.8-20.53 286.82-20.29 285.84-19.73 284.86-19.17 284.11-18.25 283.35-17.33 283.25-15.99L283.25-15.99Q283.1-14.18 282.98-12.9 282.86-11.62 282.76-10.73 282.67-9.84 282.6-9.28 282.54-8.72 282.52-8.33L282.52-8.33Q282.49-8.23 282.45-7.79 282.4-7.35 282.34-6.74 282.27-6.13 282.21-5.44 282.15-4.76 282.09-4.15 282.03-3.54 281.99-3.1 281.96-2.66 281.96-2.56L281.96-2.56Q281.96-2.37 281.97-2.23 281.98-2.1 281.98-1.98L281.98-1.98Q281.98-1.78 281.8-1.65 281.62-1.51 280.98-1.34L280.98-1.34 274.51 0.88Q274.24 0.98 273.8 1.12 273.36 1.27 272.95 1.27L272.95 1.27Q272.61 1.27 272.35 1.1 272.09 0.93 272.09 0.51L272.09 0.51 274.32-24.44Q274.39-25.24 274.5-25.55 274.61-25.85 275.05-25.95L275.05-25.95Q277.27-26.39 279.61-26.84 281.96-27.29 284.18-28L284.18-28Q284.37-28 284.41-27.94 284.45-27.88 284.45-27.76L284.45-27.76Q284.45-27.71 284.44-27.61 284.42-27.51 284.36-27.17 284.3-26.83 284.19-26.14 284.08-25.44 283.89-24.19L283.89-24.19Q285.57-25.17 287.05-25.77 288.52-26.37 289.83-26.7 291.14-27.03 292.28-27.14 293.43-27.25 294.43-27.25L294.43-27.25Q297.88-27.25 299.44-25.16 301-23.07 301-18.9L301-18.9Q301-18.31 300.98-17.69 300.95-17.07 300.88-16.41L300.88-16.41 299.76-5.91Q299.63-4.88 299.61-4.02 299.58-3.15 299.58-2L299.58-2Q299.58-1.81 299.6-1.67 299.61-1.54 299.61-1.44L299.61-1.44Q299.61-1.22 299.43-1.1 299.24-0.98 298.61-0.78L298.61-0.78ZM305.32-10.35L305.32-10.35Q305.64-13.7 305.95-16.97 306.27-20.24 306.52-23.68L306.52-23.68Q306.56-24.49 306.67-24.79 306.78-25.1 307.22-25.2L307.22-25.2Q309.3-25.61 311.57-26.06 313.84-26.51 315.96-27.22L315.96-27.22Q316.04-27.25 316.18-27.25L316.18-27.25Q316.45-27.25 316.45-27.05L316.45-27.05 314.25-3.27Q314.18-2.47 314.08-2.16 313.99-1.86 313.55-1.76L313.55-1.76Q311.47-1.12 309.35-0.34 307.22 0.44 304.86 1.25L304.86 1.25Q304.78 1.27 304.64 1.27L304.64 1.27Q304.37 1.27 304.37 1.03L304.37 1.03Q304.37 1 304.42 0.37 304.46-0.27 304.55-1.27 304.64-2.27 304.73-3.52 304.83-4.76 304.94-6.01 305.05-7.25 305.15-8.4 305.25-9.55 305.32-10.35ZM307.15-29.83L307.15-29.83Q307.22-30.88 307.26-31.45 307.3-32.01 307.32-32.29 307.35-32.57 307.35-32.64 307.35-32.71 307.36-32.75 307.37-32.79 307.38-32.9 307.39-33.01 307.42-33.36 307.44-33.72 307.49-34.4 307.54-35.08 307.64-36.28L307.64-36.28Q307.69-37.08 307.8-37.39 307.91-37.7 308.35-37.79L308.35-37.79Q310.42-38.21 312.69-38.66 314.96-39.11 317.09-39.82L317.09-39.82Q317.16-39.84 317.31-39.84L317.31-39.84Q317.38-39.7 317.5-39.65L317.5-39.65 317.58-39.6 317.04-32.91Q316.96-32.1 316.85-31.79 316.74-31.47 316.33-31.4L316.33-31.4Q314.25-31.01 312.13-30.54 310.01-30.08 307.64-29.61L307.64-29.61Q307.57-29.59 307.42-29.59L307.42-29.59Q307.15-29.59 307.15-29.83ZM345.82-0.78L339.89 0.88Q339.62 0.95 339.18 1.11 338.74 1.27 338.32 1.27L338.32 1.27Q337.98 1.27 337.73 1.1 337.47 0.93 337.47 0.51L337.47 0.51 337.47 0.37Q337.62-0.95 337.71-1.87 337.81-2.78 337.9-3.53 337.98-4.27 338.04-5.02 338.1-5.76 338.2-6.75 338.3-7.74 338.43-9.09 338.57-10.45 338.76-12.48L338.76-12.48Q338.89-13.72 338.98-15.01 339.08-16.31 339.08-17.41L339.08-17.41Q339.08-18.14 338.97-18.76 338.86-19.38 338.58-19.84 338.3-20.29 337.81-20.53 337.32-20.78 336.57-20.78L336.57-20.78Q336.01-20.78 335.02-20.53 334.03-20.29 333.05-19.73 332.07-19.17 331.32-18.25 330.56-17.33 330.46-15.99L330.46-15.99Q330.32-14.18 330.19-12.9 330.07-11.62 329.97-10.73 329.88-9.84 329.82-9.28 329.76-8.72 329.73-8.33L329.73-8.33Q329.71-8.23 329.66-7.79 329.61-7.35 329.55-6.74 329.49-6.13 329.43-5.44 329.36-4.76 329.3-4.15 329.24-3.54 329.21-3.1 329.17-2.66 329.17-2.56L329.17-2.56Q329.17-2.37 329.18-2.23 329.19-2.1 329.19-1.98L329.19-1.98Q329.19-1.78 329.01-1.65 328.83-1.51 328.19-1.34L328.19-1.34 321.72 0.88Q321.45 0.98 321.01 1.12 320.58 1.27 320.16 1.27L320.16 1.27Q319.82 1.27 319.56 1.1 319.31 0.93 319.31 0.51L319.31 0.51 321.53-24.44Q321.6-25.24 321.71-25.55 321.82-25.85 322.26-25.95L322.26-25.95Q324.48-26.39 326.83-26.84 329.17-27.29 331.39-28L331.39-28Q331.59-28 331.62-27.94 331.66-27.88 331.66-27.76L331.66-27.76Q331.66-27.71 331.65-27.61 331.64-27.51 331.57-27.17 331.51-26.83 331.4-26.14 331.29-25.44 331.1-24.19L331.1-24.19Q332.78-25.17 334.26-25.77 335.74-26.37 337.04-26.7 338.35-27.03 339.5-27.14 340.64-27.25 341.64-27.25L341.64-27.25Q345.09-27.25 346.65-25.16 348.21-23.07 348.21-18.9L348.21-18.9Q348.21-18.31 348.19-17.69 348.16-17.07 348.09-16.41L348.09-16.41 346.97-5.91Q346.85-4.88 346.82-4.02 346.8-3.15 346.8-2L346.8-2Q346.8-1.81 346.81-1.67 346.82-1.54 346.82-1.44L346.82-1.44Q346.82-1.22 346.64-1.1 346.45-0.98 345.82-0.78L345.82-0.78ZM369.67-17.04L369.69-17.41Q369.45-17.97 369.02-18.55 368.6-19.14 368.03-19.63 367.47-20.12 366.81-20.42 366.15-20.73 365.42-20.73L365.42-20.73Q364.42-20.73 363.54-19.9 362.66-19.07 362-17.69 361.34-16.31 360.97-14.54 360.59-12.77 360.59-10.86L360.59-10.86Q360.59-9.69 360.8-8.65 361-7.62 361.44-6.84 361.88-6.05 362.58-5.59 363.27-5.13 364.25-5.13L364.25-5.13Q365.71-5.13 366.94-6.04 368.16-6.96 369.01-8.42L369.01-8.42Q369.03-8.94 369.08-9.64 369.13-10.35 369.21-11.36 369.28-12.38 369.39-13.76 369.5-15.14 369.67-17.04L369.67-17.04ZM380.29-25.71L377.78-2.66Q377.53-0.24 376.68 1.86 375.82 3.96 374.52 5.7 373.21 7.45 371.54 8.83 369.86 10.21 368 11.16 366.13 12.11 364.15 12.61 362.17 13.11 360.25 13.11L360.25 13.11Q359.22 13.11 358.15 13.04 357.07 12.96 356.05 12.76 355.02 12.55 354.09 12.17 353.17 11.79 352.43 11.21L352.43 11.21 352.43 11.18Q352.43 11.06 352.62 10.33 352.8 9.59 353.06 8.61 353.31 7.62 353.59 6.57 353.87 5.52 354.07 4.76L354.07 4.76Q354.17 4.42 354.26 4.3 354.36 4.17 354.48 4.17L354.48 4.17Q354.63 4.17 354.66 4.2L354.66 4.2Q355.36 4.66 355.99 4.97 356.61 5.27 357.3 5.46 358 5.64 358.83 5.71 359.66 5.79 360.76 5.79L360.76 5.79Q362.47 5.79 363.79 5.13 365.1 4.47 366.06 3.42 367.01 2.37 367.58 1.11 368.16-0.15 368.38-1.37L368.38-1.37Q366.62-0.2 364.81 0.54 363 1.27 361.17 1.27L361.17 1.27Q358.66 1.27 356.83 0.26 355-0.76 353.8-2.47 352.6-4.17 352.03-6.38 351.46-8.59 351.46-11.01L351.46-11.01Q351.46-12.92 351.81-14.86 352.16-16.8 352.86-18.6 353.56-20.41 354.58-21.98 355.61-23.56 356.95-24.73 358.29-25.9 359.93-26.57 361.56-27.25 363.49-27.25L363.49-27.25Q365.59-27.25 367.39-26.32 369.18-25.39 370.65-24.02L370.65-24.02Q370.7-24.46 370.72-24.72 370.74-24.98 370.84-25.12 370.94-25.27 371.17-25.34 371.4-25.42 371.84-25.51L371.84-25.51Q372.11-25.56 372.82-25.72 373.53-25.88 374.5-26.1 375.48-26.32 376.65-26.56 377.82-26.81 379.02-27.08L379.02-27.08Q379.31-27.15 379.56-27.15L379.56-27.15Q380.31-27.15 380.31-26.17L380.31-26.17Q380.31-26.05 380.31-25.94 380.31-25.83 380.29-25.71L380.29-25.71Z" opacity="1" transform="matrix(1,0,0,1,0,0)" fill="#32f6f7" class="undefined-text-1" data-fill-palette-color="quaternary" id="text-1"></path></svg></g></svg></g></svg></g></svg></g><g></g></svg></g></svg></g></svg></g><defs></defs></svg><rect width="320" height="360" fill="none" stroke="none" visibility="hidden"></rect></g></svg></g></svg>