<svg xmlns="http://www.w3.org/2000/svg" version="1.1" xmlns:xlink="http://www.w3.org/1999/xlink" xmlns:svgjs="http://svgjs.dev/svgjs" width="2000" height="2250" viewBox="0 0 2000 2250"><g transform="matrix(1,0,0,1,0,0)"><svg viewBox="0 0 320 360" data-background-color="#ffffff" preserveAspectRatio="xMidYMid meet" height="2250" width="2000" xmlns="http://www.w3.org/2000/svg" xmlns:xlink="http://www.w3.org/1999/xlink"><g id="tight-bounds" transform="matrix(1,0,0,1,0,0)"><svg viewBox="0 0 320 360" height="360" width="320"><g><svg></svg></g><g><svg viewBox="0 0 320 360" height="360" width="320"><g><path d="M165.217 303.356c-1.404-1.755-2.809-0.702-2.808-1.755-8.426 2.106-24.223-3.511-30.894-2.809 1.404-2.106-2.106-1.755-2.106-3.159-1.404 2.106-2.809 0-4.915 0.702-2.106-5.266-10.532-1.404-11.585-8.075-4.915 0-6.67-2.809-11.586-5.617 0.351-0.351 0.702-0.351 1.054-0.702-2.457-0.351-2.457-1.755-4.564-1.755l0.702-1.405c-3.862-0.702-5.266-6.67-10.883-8.776-1.755-0.351-5.617-6.319-7.723-7.724-1.053-0.702-2.809-0.702-0.352-1.053-0.351-0.351-0.351-1.053 0-1.404-2.457-0.702-2.809-2.809-5.968-3.862-0.351-1.053 0.702-1.755 0-2.457-0.702-0.351-1.755 0.351-2.457 0-0.351 6.319 6.67 7.021 8.777 12.287-0.702-0.702-1.755-2.809-2.458-1.404-0.351 1.053 2.809 4.915 2.809 2.808-1.053 0.702-1.404-1.053-0.703-1.404 1.053 1.755 3.16 1.404 3.16 2.809-1.053 1.053-2.457-1.053-2.106 0.702 3.16 1.755 2.809 3.511 4.563 5.968-1.404-1.755-1.755 1.404-3.159 0-0.351-5.266-6.319-4.213-6.319-9.479-0.702-1.755-1.404-0.351-2.458-1.053 1.404-1.404-4.213-6.319-4.213-4.564-1.755-2.106-0.702-2.809-1.053-4.213-1.404-0.351-0.351 1.404-1.404 0.351 1.404-2.457-1.755-5.617-3.862-8.074l1.405-0.702c-2.457-1.404-2.809-4.213-4.564-7.373-2.106 3.16 4.213 10.181 3.159 11.585 0 0.351 2.457 3.16 3.16 4.564 2.809 4.915 4.915 10.883 8.777 13.692-0.702-0.351-0.351-2.457 0.702-1.404 0 1.053-0.702 2.106-0.702 3.159 2.106 2.106 3.862 3.862 5.968 5.968-4.564-2.809-9.128-5.617-12.288-9.83 1.755-0.351 3.511 2.809 4.915 2.458-3.511-2.809-2.457-3.862-3.861-7.372-1.404-1.053 0.351 1.404-1.054 1.755-4.564-4.213-8.075-6.67-10.181-10.532 0.351-0.351 0.702-0.702 0.703-1.404-0.351-0.351-0.351-0.351-0.703-0.702 2.106 2.106 2.809 3.862 5.266 4.212-1.053-1.053 0-1.404-1.404-2.457-0.702-1.404-1.755 0.702-2.457-0.351 0.702-1.053 0-2.457 0-3.511-0.702 0-1.404 0-1.756-1.053-0.702-0.351-1.053 0-1.404 0.702-0.351-0.351-0.351-1.053-0.702-1.404v-0.351c-0.351-0.351-0.702-1.053-1.053-1.405-2.809-7.372-4.564-17.202-8.426-23.521 1.053-4.213-0.702-12.638-1.755-14.745 1.053-1.755 0.351-9.83-0.351-11.234-1.755 0.702 0.351 4.564-1.404 5.617-1.755-7.723 1.053-16.5 0.351-23.521 0.702 0 1.404 0 1.404-0.351-1.053-1.053 0.702-3.16 0.351-5.617 1.404-3.16-3.16 4.564-3.16 7.723-0.351 0.702-1.755 0-1.404 1.756 0 2.457 0.702 7.372-0.702 10.883-0.702 0-0.702-0.702-1.404-0.351-0.351 1.755-0.702 3.862-1.053 5.617-0.351-0.702-0.702-1.755-0.703-2.107-1.755-8.777 0-18.958-0.702-26.33 1.404 0 1.404-2.106 2.458-2.808-0.351 2.809-1.053 6.319 0.702 7.021 1.404-13.692 4.213-28.787 10.532-43.532 4.564-10.883 11.234-21.766 19.308-30.543 0.702 1.053-0.351 3.511 0 4.564 7.021-7.372 11.585-16.149 19.309-21.064 0.351 1.755-3.16 3.16-3.16 4.564 3.16-3.16 4.213-2.106 7.724-3.159 1.053-1.404-1.404 0-1.756-1.405 2.106-1.404 3.511-3.16 4.915-4.212 0 0.351-0.351 0.351-0.351 0.702 3.862-1.053 4.213-3.16 7.022-3.862-0.351-0.351-1.053-0.702-2.107-0.351 0.702-0.351 1.755-1.053 2.809-1.404-0.351 0-0.351 0.351-0.702 0.351 2.106-1.053 0.351 0.351 0.351 1.053 0.351 0 0.702-0.351 0.702-0.351-2.106 1.404-3.511 2.106-4.213 4.564 1.053-0.702 1.404 0 2.809-1.054 1.404-0.702-0.351-1.755 0.702-2.457 1.053 0.702 2.457 0.351 3.51 0.351 0-0.702 0.351-1.404 1.054-1.755 0.351-0.702 0-1.053-0.352-1.053 0.351-0.351 0.702-0.351 1.405-0.703 0 0 0.351 0 0.351 0.351 5.968-2.809 12.638-5.266 18.957-7.372 3.862-0.351 8.777-0.351 10.883-2.808-0.702 0-1.404 0.351-1.755 0 0.351 0 1.053-0.351 1.404-0.351 0.702 0.702 1.755 0 0.702 1.404 0.351 0 0.351 0 0.703-0.351 0 0.351 0 0.351 0.351 0.702 0.351 0 0.702-0.351 1.053-1.053 0.351 0 0.702 0 1.053-0.351l-0.351 0.351c2.809-0.702 5.266-0.351 9.128-1.054 0-0.351 0-0.702 0-1.053 0.702 0 1.053-0.351 1.755-0.351v0.351c1.404-0.702 2.809 0.702 2.808 0 0.351 0 0.351 0 0.703 0 0 0.702-0.351 1.053-0.351 1.405 1.755 0 2.809 0 3.51-1.054-0.351-0.351-0.702-0.351-1.053-0.351 0.702 0 1.404-0.351 2.106-0.702 1.053 0.351 1.404 0.702 1.405 2.107 1.755-3.16 7.372 0.702 9.829 0 1.053 0 0.702-1.404 1.405-2.107 0.351 0 0.702 0 1.053 0 1.755 1.404 4.213 2.809 7.372 3.16-2.809-0.702 0.351-1.053 0.702-1.405-0.702 0-0.702-0.351-0.702-0.702 1.053 0 2.106 0.351 3.16 0.351 0 0.702 0.351 1.053 1.053 1.054 0.702 0 0.702-0.351 0.702-1.054 1.053 0 1.755 0 2.809 0.351-0.351 1.404 1.755 1.755 2.457 2.809-2.809-0.702-5.968-1.755-7.021 0 11.234 2.457 23.521 5.968 35.457 11.936 0 0 0 0 0 0.351h0.352c2.106 1.053 4.213 2.106 6.319 3.16 1.404 0.702 2.457 1.404 3.861 2.457 0 0.351 0 0.702 0.703 0.702h0.351c1.404 1.053 2.809 1.755 4.212 2.809 1.404 2.106 2.809 4.915 5.266 4.213 5.266 8.075 10.883 11.234 15.447 19.659 0.351-1.404 1.404 3.16 3.16 3.511-2.809-0.351 1.755 1.755-1.053 1.404 2.457 2.457 3.16 3.511 3.51 6.319-0.702-1.404-1.053-1.755-1.404-0.351-0.351 2.106 2.457-0.351 3.511 1.756-2.106 0-1.404 1.404-1.054 3.159 1.053-1.053 0.702-2.106 1.756-1.755 1.404 1.404-0.702 1.755-0.351 2.809 1.053-1.404 1.404-0.702 2.808 0-1.755 0.351 1.053 2.809-1.053 1.755 1.404 1.755 1.755 2.809 1.053 4.564-1.404-2.106-0.351-3.511-2.457-3.16 4.213 3.511 2.106 11.585 7.021 12.287-3.16 0.702 0 2.106-1.755 2.458 2.106 0.702 1.053 3.511 3.51 4.213-0.351 1.755-1.053 2.809-1.404 4.563 1.053 1.404 1.404 4.213 3.16 4.564-1.053 1.053-0.351 3.862-1.404 4.915 1.404-0.702 2.106-0.702 3.159 0.702-1.755 1.404-0.351 2.809-1.404 3.16 3.16 8.075-0.702 24.575 1.053 30.894-2.106-1.053-1.404 2.457-2.808 2.457 2.457 1.053 0.351 2.809 1.404 4.564-4.915 2.809 0 10.532-6.67 12.287 0.702 4.915-2.106 7.021-4.213 12.288-0.351-0.351-0.351-0.702-0.702-1.054-0.351 2.457-1.755 2.809-1.054 4.915l-1.404-0.702c0 3.862-5.968 5.968-7.372 11.936-0.351 1.755-5.617 6.319-7.022 8.777-0.702 1.053-0.351 2.809-1.053 0.351-0.351 0.351-1.053 0.351-1.404 0.351-0.351 2.457-2.457 3.16-3.16 6.319-0.702 0.351-1.755-0.702-2.457 0.351 0 0.702 0.702 1.755 0.351 2.458 6.319-0.351 6.319-7.723 11.234-10.181-0.351 1.053-2.457 2.106-1.053 2.808 1.053 0 4.213-3.511 2.457-3.159 1.053 0.702-1.053 1.404-1.404 1.053 1.755-1.404 1.053-3.16 2.458-3.511 1.053 0.702-1.053 2.457 1.053 2.107 1.404-3.16 3.16-3.511 5.266-5.266-1.404 1.404 1.755 1.755 0.351 3.159-5.266 1.053-3.511 7.021-8.777 7.724-1.404 1.053-0.351 1.404-0.702 2.457-1.755-1.053-5.617 4.915-4.213 4.564-1.755 1.755-2.809 1.053-4.212 1.404-0.351 1.404 1.404 0.351 0.702 1.405-2.457-1.053-5.617 2.457-7.724 4.915l-1.053-1.054c-1.053 2.809-3.862 3.16-7.021 5.266 3.511 1.755 9.479-5.617 11.234-4.564 0.351 0 3.16-2.809 4.213-3.861 4.564-3.511 10.181-6.319 12.287-10.181-0.351 0.702-2.457 0.702-1.404-0.351 1.053-0.351 2.106 0.351 3.159 0.351 5.617-7.723 12.638-14.043 17.905-23.17 0.351-0.351 0.702-1.053 1.053-1.756-0.702 2.106-1.755 3.862-2.458 5.968-5.617 3.862-7.723 15.096-14.393 16.851 0.351 3.862-3.16 4.915-4.915 9.479-1.053 1.404-1.755-1.053-2.809 0.702 1.053 4.915-8.777 4.564-8.425 9.128-0.702 0.351-1.755 0.702-2.458 1.404h-0.351c-0.351 0.351-0.351 0.351-0.702 0.702-1.755 1.053-3.16 2.106-4.564 3.16-4.915 2.809-11.585 4.915-16.851 7.723v-0.351c-1.404 0.702-3.16 0.351-2.809 1.756-1.053 0.702-2.106 1.404-3.159 2.106-0.351 0-0.351 0-0.702 0 0 0-0.351-0.351-0.702-0.351-0.702 0-0.702 0-1.054 0.351-4.564 0.351-10.532 2.457-12.287 3.862-1.755-1.053-9.83 0.702-11.234 1.404 0.702 1.053 2.809 0 4.564 0-1.053 0.351-2.106 0.702-2.458 1.404-0.351 0-0.351 0-0.702 0-0.351-1.053-1.404 0-1.755-0.351h0.351c-0.351-1.404-1.404-2.106-3.16-1.755 0 0.702 0 1.053-0.351 1.755 0.702 0 2.809-1.053 2.809 0-0.351 0-0.351 0.351 0 0.351-0.702 0.702-1.755 0.702-2.458 1.054-1.404 0-3.16 0-4.563 0-0.351-0.351-0.702-0.351-1.405-0.703-0.351 0.351-1.053 0.351-1.404 0.703-2.106 0-4.564 0.351-6.319 0.702 0-0.702 0-1.404-0.702-1.405-1.053 1.404-3.16-0.351-5.617 0.352-2.457-0.702 1.404 1.053 4.915 1.755-0.351 0.351-0.702 0.702-1.756 1.053M116.068 308.271c-4.915-4.564-15.096-6.67-16.851-10.181-2.809-0.351-7.021-5.617-10.532-6.319 1.755 0 0.351-1.053 0-1.755-0.702 0.702-1.404 1.053-2.106 1.053 0-2.809-2.809-4.564-5.266-6.319 1.755 1.053 3.16 1.755 5.266 2.106 0-0.702 0-1.404 0.702-1.404 2.457 2.457 5.266 4.915 8.425 7.372 4.213 3.862 25.979 13.692 29.841 15.447 0 0-0.702 1.404-0.351 1.404 1.755 1.053 3.16-1.053 3.511 1.404-5.617 0.702-7.723-3.16-12.639-2.808M277.909 226.824v0.351 0c-0.351 0 0-0.351 0-0.351M136.079 64.281c-0.351 0.351-0.702 0.351-0.702 0.351 0-0.351 0.351-0.351 0.702-0.351M129.409 66.036c0 0.351 0 0.351 0 0 0 0.351 0 0.351 0 0 0 0.351 0 0 0 0M106.238 73.408v0c0.351-0.351 0.351-0.351 0.703-0.351-0.351 0-0.702 0.351-0.703 0.351M162.409 61.823c-0.702 0-1.053 0-1.404-0.351 0.351 0 0.702 0 1.053 0h0.351c0 0 0 0 0 0.351M168.728 62.525c-0.351-0.351-1.404-0.702-2.457-0.702 0-0.351 0.351-0.702 0.351-0.702 0.351 0 0.702 0 1.053 0 0 0 0.351 0 0.351 0.351 0 0 0 0 0-0.351 0.351 0 0.351 0 0.702 0 0.351 0.702 0.702 1.053 0 1.404M180.313 63.579c-1.755 0.351-2.809-0.351-4.564-1.405 1.053 0 2.457 0.351 3.511 0.702 0.351 0 0.702 0.351 1.053 0.703M305.292 113.43c-0.702 0.351-1.053 0.351-1.755-1.053-5.617-11.936-15.798-29.138-30.543-43.532-14.394-14.745-33.702-26.681-51.255-33.001 1.053 0.351 2.457 1.053 1.755 1.756-15.447-5.968-30.192-9.479-44.234-10.883-37.915-5.968-77.585 2.106-108.128 21.766 0.351 0.702 0.351 1.053-0.702 1.755-11.234 7.021-27.032 19.309-39.671 35.458-12.638 16.149-22.468 36.511-26.681 54.766 0.351-1.053 0.702-2.809 1.405-2.107-9.128 36.16-6.67 67.053 5.968 93.735 0.702-0.702-1.755-4.213 0.351-3.862 1.404 3.862 3.16 8.075 5.266 11.936 2.457 5.617 5.266 12.989 9.128 14.745-9.83-19.309-16.5-41.426-17.203-61.085 1.404 2.809 1.053 8.777 3.16 11.234 0.702-13.34-2.457-31.245 2.106-43.883-1.053 6.67-1.755 15.798-1.053 24.925 0 6.67 3.16 25.277 5.266 27.032-0.351-0.351-0.351-2.106 0-2.106 1.053 2.106-1.404 3.16 0.351 3.511 0-0.702 0.351-0.702 0.702-0.703 3.511 7.723 8.075 19.66 11.585 25.628 4.213 7.723 9.83 14.745 16.149 21.064 0 0.351 0.351 0.351 0.352 0.702 0.702 1.755 3.16 3.862 3.861 5.266 0.351 0.702-0.351 1.755 0 2.458 5.266 9.83 12.989 19.66 22.468 27.383 5.968 7.021 15.447 14.394 27.032 20.713 11.234 5.968 24.223 10.883 36.16 13.691 8.426 2.106 18.606 2.457 24.926 3.862 8.426 1.755 23.17-0.702 30.542-2.107 44.234-6.67 88.117-36.862 110.235-80.393 22.819-43.883 22.117-97.596 2.457-138.671" fill="#ff0000" fill-rule="nonzero" stroke="none" stroke-width="1" stroke-linecap="butt" stroke-linejoin="miter" stroke-miterlimit="10" stroke-dasharray="" stroke-dashoffset="0" font-family="none" font-weight="none" font-size="none" text-anchor="none" style="mix-blend-mode: normal" data-fill-palette-color="tertiary"></path></g><g transform="matrix(1,0,0,1,80,113.075029992842)"><svg viewBox="0 0 160 133.849940014316" height="133.849940014316" width="160"><g><svg viewBox="0 0 160 133.849940014316" height="133.849940014316" width="160"><g><svg viewBox="0 0 160 133.849940014316" height="133.849940014316" width="160"><g><svg viewBox="0 0 160 133.849940014316" height="133.849940014316" width="160"><g><svg viewBox="0 0 160 133.849940014316" height="133.849940014316" width="160"><g><svg viewBox="0 0 160 86.90978886756238" height="86.90978886756238" width="160"><g transform="matrix(1,0,0,1,0,0)"><svg width="160" viewBox="0.2 -36.5 78.14999999999999 42.45" height="86.90978886756238" data-palette-color="#ff0000"><path d="M19.75 5.95L19.75 5.95 11.65 5.95Q10.45 5.95 9.9 5.4 9.35 4.85 9.35 3.65L9.35 3.65 9.35-20.4 2.5-20.4Q1.3-20.4 0.75-20.95 0.2-21.5 0.2-22.7L0.2-22.7 0.2-28.75Q0.2-29.4 0.38-29.85 0.55-30.3 0.9-30.6L0.9-30.6 7.35-36.05Q7.6-36.25 8.03-36.38 8.45-36.5 8.95-36.5L8.95-36.5 35.35-36.5Q36.55-36.5 37.1-35.95 37.65-35.4 37.65-34.2L37.65-34.2 37.65-28.15Q37.65-27.5 37.48-27.05 37.3-26.6 36.95-26.3L36.95-26.3 30.45-20.9Q30.25-20.7 29.83-20.55 29.4-20.4 28.9-20.4L28.9-20.4 28.5-20.4 28.5-1.8Q28.5-1.15 28.33-0.7 28.15-0.25 27.8 0.05L27.8 0.05 21.3 5.45Q21.1 5.65 20.68 5.8 20.25 5.95 19.75 5.95ZM18.1 0L26.2 0Q27.15 0 27.58-0.43 28-0.85 28-1.8L28-1.8 28-26.35 35.35-26.35Q36.3-26.35 36.73-26.78 37.15-27.2 37.15-28.15L37.15-28.15 37.15-34.2Q37.15-35.15 36.73-35.58 36.3-36 35.35-36L35.35-36 8.95-36Q8-36 7.58-35.58 7.15-35.15 7.15-34.2L7.15-34.2 7.15-28.15Q7.15-27.2 7.58-26.78 8-26.35 8.95-26.35L8.95-26.35 16.3-26.35 16.3-1.8Q16.3-0.85 16.73-0.43 17.15 0 18.1 0L18.1 0ZM22.4-4.5L21.9-4.5 21.9-31 11.65-31 11.65-31.5 32.65-31.5 32.65-31 22.4-31 22.4-4.5ZM52.95-17.7L52.95-4.5 52.45-4.5 52.45-31.5 52.95-31.5 52.95-18.2 63.8-18.2 69.55-31.5 70.1-31.5 64.35-18.2 66.4-18.2Q69.45-18.2 70.95-17.05 72.45-15.9 72.45-13.3L72.45-13.3 72.45-4.5 71.95-4.5 71.95-13.3Q71.95-15.7 70.55-16.7 69.15-17.7 66.4-17.7L66.4-17.7 52.95-17.7ZM48.8 0L56.55 0Q57.5 0 57.92-0.43 58.35-0.85 58.35-1.8L58.35-1.8 58.35-13.25 64.95-13.25Q65.75-13.25 66.15-12.8 66.55-12.35 66.55-11.55L66.55-11.55 66.55-1.8Q66.55-0.85 66.97-0.43 67.4 0 68.35 0L68.35 0 76.05 0Q77 0 77.42-0.43 77.85-0.85 77.85-1.8L77.85-1.8 77.85-15.9Q77.85-18.9 76.17-20.73 74.5-22.55 71.7-22.7L71.7-22.7 76.8-34.35Q77.15-35.15 76.85-35.58 76.55-36 75.7-36L75.7-36 68-36Q67.05-36 66.45-35.63 65.85-35.25 65.5-34.35L65.5-34.35 60.35-22.7 58.35-22.7 58.35-34.2Q58.35-35.15 57.92-35.58 57.5-36 56.55-36L56.55-36 48.8-36Q47.85-36 47.42-35.58 47-35.15 47-34.2L47-34.2 47-1.8Q47-0.85 47.42-0.43 47.85 0 48.8 0L48.8 0ZM58.15 0.05L58.15 0.05 51.65 5.45Q51.45 5.65 51.02 5.8 50.6 5.95 50.1 5.95L50.1 5.95 42.35 5.95Q41.15 5.95 40.6 5.4 40.05 4.85 40.05 3.65L40.05 3.65 40.05-28.75Q40.05-29.4 40.22-29.85 40.4-30.3 40.75-30.6L40.75-30.6 47.2-36.05Q47.45-36.25 47.87-36.38 48.3-36.5 48.8-36.5L48.8-36.5 56.55-36.5Q57.75-36.5 58.3-35.95 58.85-35.4 58.85-34.2L58.85-34.2 58.85-29.65Q59-29.85 59.15-30.08 59.3-30.3 59.5-30.45L59.5-30.45 65.95-35.9Q66.3-36.2 66.82-36.35 67.35-36.5 68-36.5L68-36.5 75.7-36.5Q76.95-36.5 77.35-35.88 77.75-35.25 77.25-34.15L77.25-34.15 72.45-23.15Q75.15-22.8 76.75-20.85 78.35-18.9 78.35-15.9L78.35-15.9 78.35-1.8Q78.35-1.15 78.17-0.7 78-0.25 77.65 0.05L77.65 0.05 71.15 5.45Q70.95 5.65 70.52 5.8 70.1 5.95 69.6 5.95L69.6 5.95 61.9 5.95Q60.7 5.95 60.15 5.4 59.6 4.85 59.6 3.65L59.6 3.65 59.6-6.1Q59.6-6.6 59.4-6.9 59.2-7.2 58.85-7.25L58.85-7.25 58.85-1.8Q58.85-1.15 58.67-0.7 58.5-0.25 58.15 0.05Z" opacity="1" transform="matrix(1,0,0,1,0,0)" fill="#ff0000" class="undefined-text-0" data-fill-palette-color="primary" id="text-0"></path></svg></g></svg></g><g transform="matrix(1,0,0,1,0,107.42710418426104)"><svg viewBox="0 0 152 26.422835830054957" height="26.422835830054957" width="152"><g transform="matrix(1,0,0,1,0,0)"><svg width="152" viewBox="2.198958083345 -36.218181695745 314.471041916655 54.671306695745" height="26.422835830054957" data-palette-color="#ca3433"><path d="M17.75-2.55Q17.3-2.75 16.85-2.75L16.85-2.75Q16.4-2.75 16.07-2.53 15.75-2.3 15.35-1.85L15.35-1.85Q14.75-1.25 14.1-0.85L14.1-0.85Q13.5-0.5 11.9-0.2L11.9-0.2Q11.2-0.1 10.75-0.1L10.75-0.1Q8.65-0.1 6.38-1.03 4.1-1.95 3.15-3.25L3.15-3.25Q2.15-4.65 2.2-6.25L2.2-6.25Q2.25-8.65 4.2-11.05L4.2-11.05Q6.1-13.35 7.68-14.3 9.25-15.25 12-15.5L12-15.5Q12.6-15.5 13.73-15.7 14.85-15.9 14.85-16.25L14.85-16.25Q14.85-16.95 14.23-17.53 13.6-18.1 11.7-18.1L11.7-18.1Q11-18.1 9.6-18L9.6-18Q8.2-17.9 7.65-17.9L7.65-17.9Q5.95-17.9 5.2-18.45L5.2-18.45Q5-18.55 5-19.4L5-19.4Q5-20.9 6.05-21.3L6.05-21.3Q8.2-22.1 10.5-22.15L10.5-22.15Q13.4-22.15 15.88-20.88 18.35-19.6 19.5-17.7L19.5-17.7Q20.65-15.8 21-12.45L21-12.45Q21.4-8.7 21.4-2.9L21.4-2.9Q21.4-1.3 20.95-1.05L20.95-1.05Q20.55-0.8 20.2-0.8L20.2-0.8Q19.75-0.8 19.38-1.07 19-1.35 18.55-1.85L18.55-1.85Q18.1-2.4 17.75-2.55L17.75-2.55ZM9.85-3.15Q12.2-3.85 14.45-5.4L14.45-5.4Q14.95-5.75 15.35-6.3 15.75-6.85 15.85-7L15.85-7Q15.95-7.15 16.03-7.88 16.1-8.6 16.05-9.05L16.05-9.05Q16-9.2 15.88-9.85 15.75-10.5 15.5-11L15.5-11Q15.25-11.4 14.7-11.75 14.15-12.1 13.7-12.05L13.7-12.05Q12.75-12 11.65-11.35 10.55-10.7 9.6-9.6L9.6-9.6Q8.65-8.45 8.13-7.28 7.6-6.1 7.6-5.1L7.6-5.1Q7.7-3.75 8.35-3.3L8.35-3.3Q8.7-3.05 9.2-3.05L9.2-3.05Q9.6-3.05 9.85-3.15L9.85-3.15ZM32.45-2.3Q33.45-3.5 33.9-4.2L33.9-4.2Q34.45-4.95 35.05-4.95L35.05-4.95Q35.65-4.95 35.95-4.2L35.95-4.2Q36.65-2.2 36.65-1.05L36.65-1.05Q36.65-0.55 36.6-0.3L36.6-0.3Q36.4 0.7 35.47 1.1 34.55 1.5 33.3 1.4L33.3 1.4Q32.85 1.4 31.77 1.4 30.7 1.4 29.92 1.1 29.15 0.8 28.55 0.1L28.55 0.1Q27.25-1.45 27.25-2.9L27.25-2.9Q27.25-14.6 27.15-20.5L27.15-20.5 27.1-29.3Q27.1-31.05 26.75-32.5L26.75-32.5Q26.7-32.75 26.7-33.1L26.7-33.1Q26.7-34.95 29.2-34.95L29.2-34.95Q30.85-34.95 31.97-33.88 33.1-32.8 33-31.05L33-31.05Q32.85-28.4 32.6-23.1L32.6-23.1 32.3-17.1Q31.9-8.6 31.75-4.35L31.75-4.35Q31.7-3.85 31.8-3.25 31.9-2.65 31.95-2.5L31.95-2.5 32.45-2.3ZM55.65-5.65Q55.55-5.75 54.55-6.95L54.55-6.95Q52.9-3.1 52.2-1.8L52.2-1.8Q51.1 0.45 49.25 0.45L49.25 0.45Q48.4 0.45 47.2-0.1L47.2-0.1Q45.2-1.1 44-2.8 42.8-4.5 42.1-6.9L42.1-6.9Q41.1-10.3 40.3-14L40.3-14Q40.2-14.5 40.2-14.7L40.2-14.7Q40.2-15.9 41.4-16.6L41.4-16.6Q42.25-17.05 42.9-17.05L42.9-17.05Q43.55-17.05 44.4-16.6L44.4-16.6Q45.75-15.9 46.37-14.98 47-14.05 47.05-12.55L47.05-12.55Q47.1-11.45 47.75-9.43 48.4-7.4 48.55-7.3L48.55-7.3Q48.7-7.5 49.1-7.95 49.5-8.4 49.7-8.8L49.7-8.8 50.6-10.65Q51.8-13.15 52.6-14.3L52.6-14.3Q53.2-15.2 54.02-15.65 54.85-16.1 55.75-16.1L55.75-16.1Q57.35-16.1 58.75-14.7L58.75-14.7Q59.15-14.25 59.5-12.8L59.5-12.8Q59.65-12.1 59.85-10.95L59.85-10.95Q60.2-8.7 60.7-7.3L60.7-7.3Q61-6.45 61.7-6.45L61.7-6.45Q62.35-6.45 62.85-7.25L62.85-7.25Q64.05-9.35 65.45-12.35L65.45-12.35Q66.3-14.3 67.15-15.75 68-17.2 69.9-19.4L69.9-19.4Q70.4-20 71.25-20.43 72.09-20.85 72.8-20.8L72.8-20.8Q73.3-20.75 73.59-19.9 73.9-19.05 73.9-18L73.9-18Q73.9-17.5 73.8-16.9L73.8-16.9Q73.55-15.7 73.15-14.75 72.75-13.8 72-12.15L72-12.15Q71.09-10.2 70.84-9.6L70.84-9.6 70.2-8.6Q68.35-5.75 67.45-4.6L67.45-4.6Q66.15-3 64.15-1.6L64.15-1.6Q63.4-1.05 62.55-1.05L62.55-1.05Q61.85-1.05 61.2-1.33 60.55-1.6 59.95-1.98 59.35-2.35 59.05-2.55L59.05-2.55Q58-3.15 56.45-4.8L56.45-4.8Q55.95-5.4 55.65-5.65L55.65-5.65ZM91.64-2.55Q91.19-2.75 90.74-2.75L90.74-2.75Q90.29-2.75 89.97-2.53 89.64-2.3 89.24-1.85L89.24-1.85Q88.64-1.25 87.99-0.85L87.99-0.85Q87.39-0.5 85.79-0.2L85.79-0.2Q85.09-0.1 84.64-0.1L84.64-0.1Q82.54-0.1 80.27-1.03 77.99-1.95 77.04-3.25L77.04-3.25Q76.04-4.65 76.09-6.25L76.09-6.25Q76.14-8.65 78.09-11.05L78.09-11.05Q79.99-13.35 81.57-14.3 83.14-15.25 85.89-15.5L85.89-15.5Q86.49-15.5 87.62-15.7 88.74-15.9 88.74-16.25L88.74-16.25Q88.74-16.95 88.12-17.53 87.49-18.1 85.59-18.1L85.59-18.1Q84.89-18.1 83.49-18L83.49-18Q82.09-17.9 81.54-17.9L81.54-17.9Q79.84-17.9 79.09-18.45L79.09-18.45Q78.89-18.55 78.89-19.4L78.89-19.4Q78.89-20.9 79.94-21.3L79.94-21.3Q82.09-22.1 84.39-22.15L84.39-22.15Q87.29-22.15 89.77-20.88 92.24-19.6 93.39-17.7L93.39-17.7Q94.54-15.8 94.89-12.45L94.89-12.45Q95.29-8.7 95.29-2.9L95.29-2.9Q95.29-1.3 94.84-1.05L94.84-1.05Q94.44-0.8 94.09-0.8L94.09-0.8Q93.64-0.8 93.27-1.07 92.89-1.35 92.44-1.85L92.44-1.85Q91.99-2.4 91.64-2.55L91.64-2.55ZM83.74-3.15Q86.09-3.85 88.34-5.4L88.34-5.4Q88.84-5.75 89.24-6.3 89.64-6.85 89.74-7L89.74-7Q89.84-7.15 89.92-7.88 89.99-8.6 89.94-9.05L89.94-9.05Q89.89-9.2 89.77-9.85 89.64-10.5 89.39-11L89.39-11Q89.14-11.4 88.59-11.75 88.04-12.1 87.59-12.05L87.59-12.05Q86.64-12 85.54-11.35 84.44-10.7 83.49-9.6L83.49-9.6Q82.54-8.45 82.02-7.28 81.49-6.1 81.49-5.1L81.49-5.1Q81.59-3.75 82.24-3.3L82.24-3.3Q82.59-3.05 83.09-3.05L83.09-3.05Q83.49-3.05 83.74-3.15L83.74-3.15ZM98.19 14.1Q98.54 14 99.09 13.83 99.64 13.65 100.04 13.6L100.04 13.6Q103.64 13.5 105.32 12.1 106.99 10.7 107.44 7.15L107.44 7.15Q107.89 3.6 108.34-3.5L108.34-3.5 108.54-6.7Q108.59-7.85 108.12-8.47 107.64-9.1 106.39-9.25L106.39-9.25Q103.69-9.55 101.72-11.35 99.74-13.15 98.99-15.9L98.99-15.9Q98.74-16.75 98.44-17.9L98.44-17.9Q97.84-20.1 97.59-21.2L97.59-21.2 97.59-21.3Q97.59-21.6 97.79-21.98 97.99-22.35 98.19-22.5L98.19-22.5Q98.99-23.05 100.04-23.05L100.04-23.05Q101.44-23.05 102.54-22.08 103.64-21.1 103.79-19.65L103.79-19.65Q104.04-17.4 104.64-14.75L104.64-14.75Q104.89-13.7 105.59-13.7L105.59-13.7Q106.14-13.7 106.54-14.25L106.54-14.25Q107.84-15.9 108.54-17.45L108.54-17.45Q109.39-19.35 111.04-19.35L111.04-19.35Q111.49-19.35 111.69-19.3L111.69-19.3Q114.29-18.8 114.19-16.1L114.19-16.1 114.04-11.45Q113.84-5.25 113.59-2.2L113.59-2.2 113.44-0.2Q113.14 3.9 112.87 6.18 112.59 8.45 111.99 10.75L111.99 10.75Q111.24 13.65 109.24 15.08 107.24 16.5 104.54 16.5L104.54 16.5Q102.39 16.5 100.24 15.65L100.24 15.65Q99.79 15.45 99.19 15.13 98.59 14.8 98.29 14.6L98.29 14.6 98.19 14.1ZM123.79 1.1Q119.59 1.1 118.44-2.5L118.44-2.5Q118.84-2.5 119.51-2.48 120.19-2.45 120.64-2.35L120.64-2.35Q121.34-2.25 121.64-2.25L121.64-2.25Q123.89-2.25 125.39-4.25L125.39-4.25Q126.44-5.7 126.44-7.2L126.44-7.2Q126.44-8.2 125.94-9.15L125.94-9.15Q124.84-11.1 123.24-13.45L123.24-13.45Q122.19-15 121.34-16.4L121.34-16.4Q120.34-18 120.34-19.95L120.34-19.95Q120.34-21.75 121.36-23.13 122.39-24.5 124.39-24.85L124.39-24.85 125.99-25.15Q128.59-25.65 129.89-25.65L129.89-25.65Q132.04-25.65 133.69-24.65L133.69-24.65Q134.04-24.4 134.41-23.78 134.79-23.15 134.99-22.8L134.99-22.8Q134.64-22.65 134.01-22.33 133.39-22 132.94-21.95L132.94-21.95Q132.24-21.85 130.84-21.85L130.84-21.85Q129.49-21.85 128.79-21.8L128.79-21.8Q127.19-21.65 126.26-20.73 125.34-19.8 125.34-18.5L125.34-18.5Q125.34-17.5 125.94-16.45L125.94-16.45Q127.29-14.2 129.69-11.3L129.69-11.3Q131.49-9.05 131.49-6.65L131.49-6.65Q131.49-5.35 130.89-3.9L130.89-3.9Q128.84 1.1 123.79 1.1L123.79 1.1ZM145.54-2.6Q146.89-2.85 151.14-3.75L151.14-3.75 154.99-4.55Q155.64-3.9 156.09-3.4 156.54-2.9 156.54-2.55L156.54-2.55Q156.54-2.15 156.14-1.75 155.74-1.35 154.54-0.45L154.54-0.45Q154.39-0.35 154.21-0.1 154.04 0.15 153.84 0.2L153.84 0.2 152.49 0.55Q150.79 1.05 149.46 1.33 148.14 1.6 146.79 1.6L146.79 1.6Q141.99 1.6 138.94-1.25L138.94-1.25Q137.79-2.3 137.16-3.38 136.54-4.45 136.54-5.7L136.54-5.7Q136.54-6.25 136.59-6.5L136.59-6.5Q137.39-11.45 138.39-14.9L138.39-14.9Q139.44-18.7 142.19-27.8L142.19-27.8Q142.79-29.95 144.09-34.25L144.09-34.25Q144.44-35.4 145.06-35.85 145.69-36.3 146.89-36.2L146.89-36.2Q147.14-36.2 147.36-36.15 147.59-36.1 147.84-36.1L147.84-36.1Q150.94-35.85 150.94-33.1L150.94-33.1Q150.94-32.4 150.74-31.65L150.74-31.65Q150.34-30.05 149.24-27.35L149.24-27.35Q145.19-17.05 142.99-7.5L142.99-7.5Q142.69-6.3 142.69-5L142.69-5Q142.69-2.55 144.84-2.55L144.84-2.55Q145.29-2.55 145.54-2.6L145.54-2.6ZM170.13-7.8Q169.63-7.5 168.68-7.5L168.68-7.5Q168.33-7.5 167.83-7.55 167.33-7.6 166.98-7.55L166.98-7.55Q167.38-5.9 168.88-4.88 170.38-3.85 172.23-3.85L172.23-3.85Q173.83-3.85 175.08-4.55L175.08-4.55Q176.93-5.5 178.28-6.8L178.28-6.8Q179.23-7.75 180.08-7.75L180.08-7.75Q180.63-7.75 181.03-7.2L181.03-7.2Q181.43-6.55 181.43-5.6L181.43-5.6Q181.43-4.6 181.03-4.05L181.03-4.05Q179.73-2.05 177.66-1.3 175.58-0.55 172.83-0.55L172.83-0.55Q169.98-0.55 167.33-1.8 164.68-3.05 162.81-5.23 160.93-7.4 160.33-10.05L160.33-10.05Q159.93-11.6 159.93-13.1L159.93-13.1Q159.93-15.45 161.26-16.9 162.58-18.35 165.53-19.65L165.53-19.65Q168.23-20.8 170.53-20.8L170.53-20.8Q172.18-20.8 173.73-20.3L173.73-20.3Q178.53-18.8 178.53-16.2L178.53-16.2Q178.53-14.55 176.58-12.2L176.58-12.2Q175.63-11.1 174.33-10.25 173.03-9.4 171.81-8.72 170.58-8.05 170.13-7.8L170.13-7.8ZM172.23-17.05Q172.18-17.3 171.86-17.48 171.53-17.65 171.48-17.7L171.48-17.7Q170.13-17.8 168.73-16.93 167.33-16.05 166.41-14.7 165.48-13.35 165.48-12.1L165.48-12.1 165.53-11.7Q165.58-11.5 166.06-11.2 166.53-10.9 166.63-11L166.63-11Q170.18-13.65 171.98-15.25L171.98-15.25Q172.28-15.55 172.28-16.35L172.28-16.35Q172.28-16.85 172.23-17.05L172.23-17.05ZM199.68-2.55Q199.23-2.75 198.78-2.75L198.78-2.75Q198.33-2.75 198.01-2.53 197.68-2.3 197.28-1.85L197.28-1.85Q196.68-1.25 196.03-0.85L196.03-0.85Q195.43-0.5 193.83-0.2L193.83-0.2Q193.13-0.1 192.68-0.1L192.68-0.1Q190.58-0.1 188.31-1.03 186.03-1.95 185.08-3.25L185.08-3.25Q184.08-4.65 184.13-6.25L184.13-6.25Q184.18-8.65 186.13-11.05L186.13-11.05Q188.03-13.35 189.61-14.3 191.18-15.25 193.93-15.5L193.93-15.5Q194.53-15.5 195.66-15.7 196.78-15.9 196.78-16.25L196.78-16.25Q196.78-16.95 196.16-17.53 195.53-18.1 193.63-18.1L193.63-18.1Q192.93-18.1 191.53-18L191.53-18Q190.13-17.9 189.58-17.9L189.58-17.9Q187.88-17.9 187.13-18.45L187.13-18.45Q186.93-18.55 186.93-19.4L186.93-19.4Q186.93-20.9 187.98-21.3L187.98-21.3Q190.13-22.1 192.43-22.15L192.43-22.15Q195.33-22.15 197.81-20.88 200.28-19.6 201.43-17.7L201.43-17.7Q202.58-15.8 202.93-12.45L202.93-12.45Q203.33-8.7 203.33-2.9L203.33-2.9Q203.33-1.3 202.88-1.05L202.88-1.05Q202.48-0.8 202.13-0.8L202.13-0.8Q201.68-0.8 201.31-1.07 200.93-1.35 200.48-1.85L200.48-1.85Q200.03-2.4 199.68-2.55L199.68-2.55ZM191.78-3.15Q194.13-3.85 196.38-5.4L196.38-5.4Q196.88-5.75 197.28-6.3 197.68-6.85 197.78-7L197.78-7Q197.88-7.15 197.96-7.88 198.03-8.6 197.98-9.05L197.98-9.05Q197.93-9.2 197.81-9.85 197.68-10.5 197.43-11L197.43-11Q197.18-11.4 196.63-11.75 196.08-12.1 195.63-12.05L195.63-12.05Q194.68-12 193.58-11.35 192.48-10.7 191.53-9.6L191.53-9.6Q190.58-8.45 190.06-7.28 189.53-6.1 189.53-5.1L189.53-5.1Q189.63-3.75 190.28-3.3L190.28-3.3Q190.63-3.05 191.13-3.05L191.13-3.05Q191.53-3.05 191.78-3.15L191.78-3.15ZM215.68-21.2Q215.83-20.7 215.73-19.65L215.73-19.65 215.13-13.75Q215.38-13.95 215.88-15.18 216.38-16.4 216.83-17.18 217.28-17.95 217.53-18.2L217.53-18.2Q219.88-20.45 222.83-20.9 225.78-21.35 229.33-21.3L229.33-21.3Q229.68-21.3 230.1-21.03 230.53-20.75 230.53-20.58 230.53-20.4 230.23-20.03 229.93-19.65 229.68-19.55L229.68-19.55Q226.68-18.55 224.4-17.25 222.13-15.95 220.48-13.85L220.48-13.85Q216.58-8.9 215.98-3.65L215.98-3.65Q215.83-2.25 215.13-1.78 214.43-1.3 213.18-1.3L213.18-1.3Q211.78-1.3 210.68-2.5 209.58-3.7 209.58-5.15L209.58-5.15Q209.63-10.45 209.63-21.05L209.63-21.05Q209.63-22.5 210.28-23.08 210.93-23.65 212.63-23.65L212.63-23.65Q213.88-23.65 214.75-22.95 215.63-22.25 215.68-21.2L215.68-21.2ZM240.58-18.85Q240.58-18.55 240.48-18.07 240.38-17.6 240.43-17.45L240.43-17.45Q243.88-18.2 246.28-18.2L246.28-18.2Q250.03-18.2 251.93-14.6L251.93-14.6Q253.48-11.55 253.48-7.85L253.48-7.85Q253.48-6.9 253.28-5.1L253.28-5.1Q253.13-3.9 252.33-3.18 251.53-2.45 250.43-2.45L250.43-2.45Q249.28-2.45 248.8-2.88 248.33-3.3 248.25-3.85 248.18-4.4 248.18-5.6L248.18-5.6 248.13-6.65Q248.03-9.65 247.73-11.85L247.73-11.85Q247.58-12.75 247.05-13.13 246.53-13.5 245.68-13.5L245.68-13.5Q244.88-13.5 243.78-13.25L243.78-13.25Q242.08-12.8 241.5-12.55 240.93-12.3 239.83-11.5L239.83-11.5Q239.48-11.25 239.33-10.5 239.18-9.75 239.18-9.65L239.18-9.65Q238.53-6.45 237.78-2L237.78-2Q237.73-1.8 237.58-1.05 237.43-0.3 237 0.03 236.58 0.35 235.78 0.25L235.78 0.25Q232.63-0.15 232.58-2.4L232.58-2.4Q232.53-5.3 233.03-9.25L233.03-9.25Q233.38-12.1 233.68-13.85L233.68-13.85Q233.78-14.65 233.95-15.8 234.13-16.95 234.28-18.45L234.28-18.45Q234.43-19.6 234.58-20.15 234.73-20.7 235.28-21.08 235.83-21.45 236.98-21.45L236.98-21.45Q238.43-21.45 239.38-20.8 240.33-20.15 240.58-18.95L240.58-18.95 240.58-18.85ZM263.12-23.3Q263.02-23 262.4-22.65 261.77-22.3 261.37-22L261.37-22 259.97-22.75Q257.92-23.85 257.17-24.5L257.17-24.5Q256.77-24.8 256.77-25.25L256.77-25.25Q256.77-25.55 257-25.78 257.22-26 257.67-26L257.67-26Q259.62-26 262.42-25L262.42-25Q262.72-24.95 262.97-24.33 263.22-23.7 263.12-23.3L263.12-23.3ZM258.62-14Q258.77-14.65 258.82-14.95 258.87-15.25 258.87-15.6L258.87-15.6Q258.87-16.3 259.3-16.7 259.72-17.1 260.92-17.1L260.92-17.1Q262.32-17.1 263.4-16.23 264.47-15.35 264.72-13.95L264.72-13.95Q264.87-13.25 264.92-12.4 264.97-11.55 264.97-11.3L264.97-11.3 265.67-2.75Q265.82-1.4 265.3-0.68 264.77 0.05 263.32 0.05L263.32 0.05Q262.07 0.05 261.2-0.65 260.32-1.35 260.12-2.45L260.12-2.45 258.82-13.05 258.62-14ZM277.92-18.85Q277.92-18.55 277.82-18.07 277.72-17.6 277.77-17.45L277.77-17.45Q281.22-18.2 283.62-18.2L283.62-18.2Q287.37-18.2 289.27-14.6L289.27-14.6Q290.82-11.55 290.82-7.85L290.82-7.85Q290.82-6.9 290.62-5.1L290.62-5.1Q290.47-3.9 289.67-3.18 288.87-2.45 287.77-2.45L287.77-2.45Q286.62-2.45 286.15-2.88 285.67-3.3 285.6-3.85 285.52-4.4 285.52-5.6L285.52-5.6 285.47-6.65Q285.37-9.65 285.07-11.85L285.07-11.85Q284.92-12.75 284.4-13.13 283.87-13.5 283.02-13.5L283.02-13.5Q282.22-13.5 281.12-13.25L281.12-13.25Q279.42-12.8 278.85-12.55 278.27-12.3 277.17-11.5L277.17-11.5Q276.82-11.25 276.67-10.5 276.52-9.75 276.52-9.65L276.52-9.65Q275.87-6.45 275.12-2L275.12-2Q275.07-1.8 274.92-1.05 274.77-0.3 274.35 0.03 273.92 0.35 273.12 0.25L273.12 0.25Q269.97-0.15 269.92-2.4L269.92-2.4Q269.87-5.3 270.37-9.25L270.37-9.25Q270.72-12.1 271.02-13.85L271.02-13.85Q271.12-14.65 271.3-15.8 271.47-16.95 271.62-18.45L271.62-18.45Q271.77-19.6 271.92-20.15 272.07-20.7 272.62-21.08 273.17-21.45 274.32-21.45L274.32-21.45Q275.77-21.45 276.72-20.8 277.67-20.15 277.92-18.95L277.92-18.95 277.92-18.85ZM312.07-12.6Q311.92-9 311.57-7.15 311.22-5.3 310.19-3.63 309.17-1.95 306.87 0.25L306.87 0.25 308.62 1.2Q310.22 2.1 310.97 2.45L310.97 2.45Q313.22 3.5 314.37 5.13 315.52 6.75 315.52 8.7L315.52 8.7Q315.52 11.1 313.92 13.45L313.92 13.45Q312.22 15.95 309.67 17.18 307.12 18.4 304.22 18.45L304.22 18.45Q302.07 18.5 299.82 17.75L299.82 17.75Q298.77 17.4 297.72 16.23 296.67 15.05 296.04 13.6 295.42 12.15 295.47 11.05L295.47 11.05Q295.52 10.8 295.67 10.53 295.82 10.25 296.02 10.2L296.02 10.2Q296.07 10.15 296.22 10.15L296.22 10.15Q296.37 10.15 296.64 10.28 296.92 10.4 297.02 10.45L297.02 10.45Q297.27 10.55 297.37 10.9L297.37 10.9Q298.07 12.45 298.92 13.35 299.77 14.25 301.17 14.15L301.17 14.15Q306.32 13.8 308.22 11.3L308.22 11.3Q308.87 10.5 309.29 9.47 309.72 8.45 309.72 7.55L309.72 7.55Q309.72 6.25 309.09 5.65 308.47 5.05 307.17 4.8L307.17 4.8Q305.77 4.55 304.49 4.1 303.22 3.65 301.42 2.75L301.42 2.75Q300.52 2.3 300.17 1.95 299.82 1.6 299.82 1.1L299.82 1.1Q299.82 0.6 300.42-1.45L300.42-1.45Q300.52-1.75 299.49-2.45 298.47-3.15 297.72-3.6L297.72-3.6Q295.02-5.2 295.02-8.8L295.02-8.8Q295.02-9.8 295.17-10.7L295.17-10.7Q296.07-16.2 300.52-18.5L300.52-18.5Q301.57-19.05 302.72-19.05L302.72-19.05Q303.57-19.05 304.47-18.8 305.37-18.55 305.52-18.5L305.52-18.5 306.57-18.2Q307.32-18 308.02-18L308.02-18Q308.97-18 309.74-18.35 310.52-18.7 311.32-19.45L311.32-19.45Q312.47-20.4 313.77-20.4L313.77-20.4Q314.72-20.4 315.47-19.88 316.22-19.35 316.57-18.35L316.57-18.35Q316.67-17.95 316.67-17.7L316.67-17.7Q316.67-17.25 316.52-17L316.52-17Q316.37-16.8 315.67-15.7L315.67-15.7Q315.32-15.05 315.02-14.6 314.72-14.15 314.07-13.6L314.07-13.6Q313.62-13.35 313.12-13.23 312.62-13.1 312.34-13 312.07-12.9 312.07-12.6L312.07-12.6ZM301.57-13.35Q300.02-11.55 300.02-9.7L300.02-9.7Q300.02-8.4 300.84-7.23 301.67-6.05 303.37-5.2L303.37-5.2Q305.27-5.95 306.32-7.8 307.37-9.65 307.37-11.85L307.37-11.85Q307.37-13.2 306.97-14.3 306.57-15.4 305.37-16L305.37-16Q303.07-15.1 301.57-13.35L301.57-13.35Z" opacity="1" transform="matrix(1,0,0,1,0,0)" fill="#ca3433" class="undefined-text-1" data-fill-palette-color="secondary" id="text-1"></path></svg></g></svg></g></svg></g></svg></g></svg></g></svg></g></svg></g></svg></g><defs></defs></svg><rect width="320" height="360" fill="none" stroke="none" visibility="hidden"></rect></g></svg></g></svg>